<svg width="22" height="22" viewBox="0 0 22 22" fill="none" xmlns="http://www.w3.org/2000/svg">
<path fill-rule="evenodd" clip-rule="evenodd" d="M-0.0010376 4.49987C-0.0010376 3.35062 0.4555 2.24845 1.26814 1.4358C2.08078 0.623163 3.18296 0.166626 4.33221 0.166626H17.3319C18.4812 0.166626 19.5834 0.623163 20.396 1.4358C21.2087 2.24845 21.6652 3.35062 21.6652 4.49987V17.4996C21.6652 18.6489 21.2087 19.751 20.396 20.5637C19.5834 21.3763 18.4812 21.8329 17.3319 21.8329H4.33221C3.18296 21.8329 2.08078 21.3763 1.26814 20.5637C0.4555 19.751 -0.0010376 18.6489 -0.0010376 17.4996V4.49987ZM4.33221 2.33325C3.75758 2.33325 3.20649 2.56152 2.80017 2.96784C2.39385 3.37416 2.16559 3.92525 2.16559 4.49987V17.4996C2.16559 18.0742 2.39385 18.6253 2.80017 19.0316C3.20649 19.438 3.75758 19.6662 4.33221 19.6662H10.8321V12.0831H9.74876C9.46145 12.0831 9.18591 11.9689 8.98275 11.7658C8.77959 11.5626 8.66545 11.2871 8.66545 10.9997C8.66545 10.7124 8.77959 10.4369 8.98275 10.2337C9.18591 10.0306 9.46145 9.91643 9.74876 9.91643H10.8321V8.29146C10.8321 7.28587 11.2315 6.32146 11.9426 5.6104C12.6537 4.89934 13.6181 4.49987 14.6237 4.49987H15.2737C15.561 4.49987 15.8365 4.61401 16.0397 4.81717C16.2428 5.02033 16.357 5.29587 16.357 5.58318C16.357 5.8705 16.2428 6.14604 16.0397 6.3492C15.8365 6.55236 15.561 6.66649 15.2737 6.66649H14.6237C14.4103 6.66649 14.199 6.70853 14.0018 6.79019C13.8047 6.87185 13.6255 6.99154 13.4746 7.14244C13.3237 7.29333 13.2041 7.47246 13.1224 7.66961C13.0407 7.86676 12.9987 8.07807 12.9987 8.29146V9.91643H15.2737C15.561 9.91643 15.8365 10.0306 16.0397 10.2337C16.2428 10.4369 16.357 10.7124 16.357 10.9997C16.357 11.2871 16.2428 11.5626 16.0397 11.7658C15.8365 11.9689 15.561 12.0831 15.2737 12.0831H12.9987V19.6662H17.3319C17.9066 19.6662 18.4577 19.438 18.864 19.0316C19.2703 18.6253 19.4986 18.0742 19.4986 17.4996V4.49987C19.4986 3.92525 19.2703 3.37416 18.864 2.96784C18.4577 2.56152 17.9066 2.33325 17.3319 2.33325H4.33221Z" fill="#172853"/>
</svg>
