<svg width="154" height="25" viewBox="0 0 154 25" fill="none" xmlns="http://www.w3.org/2000/svg">
<path d="M0.543375 12.512C0.543375 9.14133 1.66338 6.336 3.90338 4.096C6.16471 1.856 9.04471 0.735998 12.5434 0.735998C14.1434 0.735998 15.7007 1.01333 17.2154 1.568C18.73 2.10133 20.0314 2.90133 21.1194 3.968L18.5274 8.192C17.7594 7.50933 16.8527 6.95467 15.8074 6.528C14.7834 6.08 13.7807 5.856 12.7994 5.856C10.666 5.856 9.05538 6.496 7.96738 7.776C6.87938 9.03467 6.33538 10.5707 6.33538 12.384C6.33538 14.24 6.89004 15.8507 7.99938 17.216C9.13004 18.5813 10.73 19.264 12.7994 19.264C14.9754 19.264 17.002 18.3253 18.8794 16.448L21.7594 20.544C19.2847 23.104 16.2127 24.384 12.5434 24.384C8.91671 24.384 6.00471 23.2747 3.80738 21.056C1.63138 18.816 0.543375 15.968 0.543375 12.512ZM22.8239 12.416C22.8239 9.088 23.9439 6.31467 26.1839 4.096C28.4239 1.856 31.2932 0.735998 34.7919 0.735998C38.2905 0.735998 41.1599 1.856 43.3999 4.096C45.6399 6.31467 46.7599 9.088 46.7599 12.416C46.7599 15.8293 45.6399 18.6773 43.3999 20.96C41.1599 23.2427 38.2905 24.384 34.7919 24.384C31.2932 24.384 28.4239 23.2427 26.1839 20.96C23.9439 18.6773 22.8239 15.8293 22.8239 12.416ZM28.6159 12.416C28.6159 14.3787 29.1919 16.0107 30.3439 17.312C31.5172 18.6133 32.9999 19.264 34.7919 19.264C36.5839 19.264 38.0559 18.6133 39.2079 17.312C40.3812 16.0107 40.9679 14.3787 40.9679 12.416C40.9679 10.5387 40.3812 8.98133 39.2079 7.744C38.0559 6.48533 36.5839 5.856 34.7919 5.856C32.9999 5.856 31.5172 6.48533 30.3439 7.744C29.1919 8.98133 28.6159 10.5387 28.6159 12.416ZM50.3219 24V1.12H55.9859L62.3219 11.808C62.5779 12.256 62.8659 12.8107 63.1859 13.472C63.5059 14.112 63.7619 14.6453 63.9539 15.072L64.2419 15.712H64.3059C64.1352 14.0693 64.0499 12.768 64.0499 11.808V1.12H69.6499V24H64.0179L57.6499 13.344C57.3939 12.896 57.1059 12.352 56.7859 11.712C56.4659 11.0507 56.2099 10.5067 56.0179 10.08L55.7299 9.44H55.6659C55.8365 11.0827 55.9219 12.384 55.9219 13.344V24H50.3219ZM73.2309 12.512C73.2309 9.14133 74.3509 6.336 76.5909 4.096C78.8522 1.856 81.7322 0.735998 85.2309 0.735998C86.8309 0.735998 88.3882 1.01333 89.9029 1.568C91.4175 2.10133 92.7189 2.90133 93.8069 3.968L91.2149 8.192C90.4469 7.50933 89.5402 6.95467 88.4949 6.528C87.4709 6.08 86.4682 5.856 85.4869 5.856C83.3535 5.856 81.7429 6.496 80.6549 7.776C79.5669 9.03467 79.0229 10.5707 79.0229 12.384C79.0229 14.24 79.5775 15.8507 80.6869 17.216C81.8175 18.5813 83.4175 19.264 85.4869 19.264C87.6629 19.264 89.6895 18.3253 91.5669 16.448L94.4469 20.544C91.9722 23.104 88.9002 24.384 85.2309 24.384C81.6042 24.384 78.6922 23.2747 76.4949 21.056C74.3189 18.816 73.2309 15.968 73.2309 12.512ZM97.2906 24V1.12H111.627V5.92H102.891V10.08H109.867V14.88H102.891V19.2H112.075V24H97.2906ZM115.666 24V1.12H125.17C127.388 1.12 129.18 1.856 130.546 3.328C131.932 4.8 132.626 6.688 132.626 8.992C132.626 11.3173 131.932 13.2267 130.546 14.72C129.18 16.192 127.388 16.928 125.17 16.928H121.266V24H115.666ZM121.266 12.128H124.018C124.956 12.128 125.671 11.84 126.162 11.264C126.674 10.688 126.93 9.93067 126.93 8.992C126.93 8.05333 126.684 7.30667 126.194 6.752C125.703 6.19733 125.01 5.92 124.114 5.92H121.266V12.128ZM140.719 24V5.92H133.775V1.12H153.263V5.92H146.319V24H140.719Z" fill="#172853"/>
</svg>
