<svg width="31" height="31" viewBox="0 0 31 31" fill="none" xmlns="http://www.w3.org/2000/svg">
<path d="M0 0L23 0C27.4183 0 31 3.58172 31 8L31 31L8 31C3.58172 31 0 27.4183 0 23L0 0Z" fill="#EDEFF6"/>
<path d="M14.0687 18.8612V17.8336C14.0687 17.2627 14.1946 16.7417 14.4464 16.2707C14.6981 15.7997 15.0017 15.4072 15.3572 15.0932C15.7126 14.7792 16.0681 14.4795 16.4235 14.1941C16.779 13.8943 17.0826 13.5661 17.3344 13.2093C17.5861 12.8382 17.712 12.4457 17.712 12.0318C17.712 11.5322 17.5047 11.1112 17.09 10.7686C16.6753 10.4261 16.1643 10.2548 15.5571 10.2548C14.7426 10.2548 13.9576 10.5546 13.2023 11.154L11.625 9.29144C12.7506 8.26381 14.1427 7.75 15.8015 7.75C17.1196 7.75 18.26 8.12109 19.2227 8.86326C20.1853 9.59116 20.6667 10.5617 20.6667 11.7749C20.6667 12.4314 20.5334 13.0237 20.2668 13.5518C20.0002 14.0799 19.6744 14.5152 19.2893 14.8577C18.9042 15.2003 18.5192 15.5285 18.1341 15.8425C17.7639 16.1423 17.4454 16.4777 17.1788 16.8488C16.9123 17.2198 16.779 17.6123 16.779 18.0262V18.8612H14.0687ZM14.0465 23.25V20.7023H16.779V23.25H14.0465Z" fill="#B0B3BC"/>
</svg>
