<svg width="24" height="24" viewBox="0 0 24 24" fill="none" xmlns="http://www.w3.org/2000/svg">
<path fill-rule="evenodd" clip-rule="evenodd" d="M2.79162 11.9998C2.79162 10.1786 3.33166 8.39827 4.34347 6.884C5.35527 5.36973 6.79339 4.18949 8.47596 3.49255C10.1585 2.79561 12.01 2.61326 13.7962 2.96855C15.5824 3.32385 17.2231 4.20084 18.5109 5.48863C19.7987 6.77641 20.6757 8.41714 21.031 10.2033C21.3863 11.9896 21.2039 13.841 20.507 15.5236C19.81 17.2061 18.6298 18.6443 17.1155 19.6561C15.6013 20.6679 13.821 21.2079 11.9998 21.2079C10.2576 21.211 8.55075 20.7172 7.07936 19.7844C6.94848 19.7017 6.80137 19.6479 6.64794 19.6268C6.49452 19.6056 6.33835 19.6177 6.18996 19.662L3.07003 20.5926L4.24542 17.8442C4.31374 17.6842 4.34252 17.5101 4.32932 17.3366C4.31612 17.1632 4.26133 16.9954 4.16959 16.8476C3.26603 15.3923 2.78864 13.7128 2.79162 11.9998ZM11.9998 0.625C5.71764 0.625 0.624993 5.71765 0.624993 11.9998C0.624993 13.9909 1.1374 15.865 2.03871 17.4954L0.170003 21.8655C0.0891223 22.0548 0.0638535 22.2632 0.0971557 22.4664C0.130458 22.6695 0.220952 22.859 0.358041 23.0125C0.495129 23.1661 0.673136 23.2774 0.871215 23.3335C1.06929 23.3895 1.27924 23.388 1.47648 23.329L6.35138 21.8752C8.07062 22.8605 10.0182 23.3774 11.9998 23.3745C18.2819 23.3745 23.3745 18.2819 23.3745 11.9998C23.3745 5.71765 18.2819 0.625 11.9998 0.625ZM14.4838 14.3636L13.0592 15.3667C12.2744 14.9151 11.5536 14.3602 10.9165 13.7168C10.2324 13.0337 9.6409 12.2637 9.15715 11.4267L10.0617 10.6586C10.2502 10.4987 10.3783 10.2792 10.4248 10.0364C10.4713 9.79361 10.4334 9.54224 10.3174 9.32399L9.16474 7.15737C9.08803 7.01348 8.97984 6.88876 8.84821 6.79251C8.71659 6.69626 8.56494 6.63097 8.40457 6.6015C8.24419 6.57203 8.07924 6.57914 7.922 6.6223C7.76476 6.66547 7.61929 6.74357 7.49644 6.85079L7.15411 7.1487C6.33188 7.86585 5.84547 9.0445 6.24846 10.2383C6.89683 12.1266 7.96974 13.8411 9.38465 15.2497C11.3487 17.2137 13.3442 17.9872 14.512 18.2884C15.4523 18.53 16.3417 18.2061 16.9689 17.6947L17.6091 17.1726C17.7441 17.0625 17.8506 16.9215 17.9195 16.7616C17.9884 16.6016 18.0177 16.4274 18.0049 16.2537C17.9922 16.08 17.9377 15.9119 17.8462 15.7637C17.7547 15.6155 17.6288 15.4916 17.4792 15.4024L15.6614 14.3191C15.4816 14.2119 15.2746 14.159 15.0655 14.1669C14.8563 14.1748 14.6539 14.2431 14.4827 14.3636H14.4838Z" fill="#4376FB"/>
</svg>
