<svg width="25" height="22" viewBox="0 0 25 22" fill="none" xmlns="http://www.w3.org/2000/svg">
<path fill-rule="evenodd" clip-rule="evenodd" d="M8.16316 3.17337C10.9711 2.77579 14.3575 2.77579 17.1655 3.17337C19.7167 3.53519 21.6937 5.32483 22.0707 7.25312C22.529 9.58766 22.529 12.4129 22.0707 14.7475C21.6926 16.6758 19.7167 18.4654 17.1655 18.8272C14.3575 19.2248 10.97 19.2248 8.16316 18.8272C5.61197 18.4654 3.63601 16.6758 3.25793 14.7475C2.79969 12.4129 2.79969 9.58766 3.25793 7.25312C3.63601 5.32483 5.61197 3.53519 8.16316 3.17337ZM17.4688 1.02841C14.4605 0.602671 10.8682 0.602671 7.85984 1.02841C4.59365 1.49099 1.72288 3.82119 1.13247 6.83713C0.620067 9.44682 0.620067 12.5538 1.13247 15.1635C1.72288 18.1794 4.59365 20.5096 7.85984 20.9722C10.8682 21.3979 14.4605 21.3979 17.4688 20.9722C20.735 20.5096 23.6058 18.1794 24.1962 15.1635C24.7086 12.5538 24.7086 9.44682 24.1962 6.83713C23.6058 3.82119 20.735 1.49099 17.4688 1.02841ZM11.0989 5.76573C10.9358 5.65688 10.7462 5.59437 10.5503 5.58485C10.3544 5.57534 10.1596 5.61918 9.98663 5.7117C9.8137 5.80423 9.66914 5.94197 9.56835 6.11022C9.46757 6.27847 9.41436 6.47092 9.41439 6.66705V15.3335C9.41436 15.5297 9.46757 15.7221 9.56835 15.8904C9.66914 16.0586 9.8137 16.1964 9.98663 16.2889C10.1596 16.3814 10.3544 16.4253 10.5503 16.4157C10.7462 16.4062 10.9358 16.3437 11.0989 16.2349L17.5988 11.9016C17.7472 11.8027 17.8688 11.6686 17.953 11.5114C18.0371 11.3542 18.0811 11.1786 18.0811 11.0003C18.0811 10.822 18.0371 10.6464 17.953 10.4892C17.8688 10.3319 17.7472 10.1979 17.5988 10.099L11.0989 5.76573ZM15.0444 11.0003L11.581 13.3099V8.69176L15.0444 11.0003Z" fill="#172853"/>
</svg>
